<?xml version="1.0" encoding="UTF-8"?>
<svg width="227px" height="170px" viewBox="0 0 227 170" version="1.1" xmlns="http://www.w3.org/2000/svg" xmlns:xlink="http://www.w3.org/1999/xlink">
    <title>Group 4@3x</title>
    <defs>
        <linearGradient x1="50.0025395%" y1="100%" x2="50.0025395%" y2="0%" id="linearGradient-1">
            <stop stop-color="#808080" stop-opacity="0.25" offset="0%"></stop>
            <stop stop-color="#808080" stop-opacity="0.12" offset="54%"></stop>
            <stop stop-color="#808080" stop-opacity="0.1" offset="100%"></stop>
        </linearGradient>
        <linearGradient x1="41.1704046%" y1="61.8287703%" x2="58.8254969%" y2="37.991066%" id="linearGradient-2">
            <stop stop-color="#808080" stop-opacity="0.25" offset="0%"></stop>
            <stop stop-color="#808080" stop-opacity="0.12" offset="54%"></stop>
            <stop stop-color="#808080" stop-opacity="0.1" offset="100%"></stop>
        </linearGradient>
        <linearGradient x1="37.5769934%" y1="62.947194%" x2="62.4354486%" y2="37.0486071%" id="linearGradient-3">
            <stop stop-color="#808080" stop-opacity="0.25" offset="0%"></stop>
            <stop stop-color="#808080" stop-opacity="0.12" offset="54%"></stop>
            <stop stop-color="#808080" stop-opacity="0.1" offset="100%"></stop>
        </linearGradient>
        <linearGradient x1="39.00532%" y1="55.3071295%" x2="61.0266284%" y2="45.2310628%" id="linearGradient-4">
            <stop stop-color="#808080" stop-opacity="0.25" offset="0%"></stop>
            <stop stop-color="#808080" stop-opacity="0.12" offset="54%"></stop>
            <stop stop-color="#808080" stop-opacity="0.1" offset="100%"></stop>
        </linearGradient>
        <linearGradient x1="49.9983298%" y1="100.004884%" x2="49.9983298%" y2="0%" id="linearGradient-5">
            <stop stop-color="#B3B3B3" stop-opacity="0.25" offset="0%"></stop>
            <stop stop-color="#B3B3B3" stop-opacity="0.1" offset="54%"></stop>
            <stop stop-color="#B3B3B3" stop-opacity="0.05" offset="100%"></stop>
        </linearGradient>
    </defs>
    <g id="Consultas" stroke="none" stroke-width="1" fill="none" fill-rule="evenodd">
        <g id="00_Consulta_sin_resultado" transform="translate(-607.000000, -460.000000)">
            <g id="Group-4" transform="translate(607.000000, 460.000000)">
                <g id="undraw_folder_x4ft" opacity="0.855771019" transform="translate(0.000000, 21.871345)" fill-rule="nonzero">
                    <polygon id="Path" fill="url(#linearGradient-1)" points="117.828677 130.233918 97.5682819 130.233918 97.5682819 48.7134503 135.400881 48.7134503"></polygon>
                    <polygon id="Path" fill="#9BC3D3" points="116.763067 130.233918 97.5682819 130.233918 97.5682819 48.7134503 133.409692 48.7134503"></polygon>
                    <polygon id="Rectangle" fill="url(#linearGradient-2)" transform="translate(44.700389, 26.684924) rotate(-15.620000) translate(-44.700389, -26.684924) " points="3.20284814 10.7366021 86.1873265 10.7641827 86.1979301 42.6332466 3.21345173 42.6056659"></polygon>
                    <polygon id="Rectangle" fill="#C3DEE7" transform="translate(44.847458, 26.591686) rotate(-15.620000) translate(-44.847458, -26.591686) " points="4.04352961 11.1541408 85.6411228 11.1812605 85.6513867 42.0292309 4.05379346 42.0021112"></polygon>
                    <polygon id="Rectangle" fill="#F5F5F5" transform="translate(35.772485, 25.156539) rotate(-15.620000) translate(-35.772485, -25.156539) " points="25.5075743 24.3707922 46.036875 24.3776153 46.0373956 25.9422853 25.5080949 25.9354622"></polygon>
                    <polygon id="Rectangle" fill="#FFFFFF" transform="translate(37.459053, 31.180503) rotate(-15.620000) translate(-37.459053, -31.180503) " points="27.1941425 30.3947564 47.7234432 30.4015795 47.7239638 31.9662496 27.1946631 31.9594265"></polygon>
                    <polygon id="Rectangle" fill="#FFFFFF" transform="translate(42.615691, 26.492220) rotate(-15.620000) translate(-42.615691, -26.492220) " points="26.1201899 25.7044025 59.1106721 25.7153672 59.1111927 27.2800372 26.1207105 27.2690725"></polygon>
                    <ellipse id="Oval" fill="#FFFFFF" transform="translate(18.267157, 33.292122) rotate(-15.620000) translate(-18.267157, -33.292122) " cx="18.2671566" cy="33.2921222" rx="3.65427241" ry="3.65026787"></ellipse>
                    <polygon id="Rectangle" fill="url(#linearGradient-3)" transform="translate(68.798989, 36.691496) rotate(-20.420000) translate(-68.798989, -36.691496) " points="27.1070415 20.5195321 110.477383 20.5544733 110.490937 52.8634591 27.1205956 52.8285179"></polygon>
                    <polygon id="Rectangle" fill="#DEEDF2" transform="translate(68.789719, 36.823700) rotate(-20.420000) translate(-68.789719, -36.823700) " points="27.9870257 21.3816424 109.57947 21.4158385 109.592412 52.2657575 27.9999677 52.2315615"></polygon>
                    <polygon id="Rectangle" fill="#F5F5F5" transform="translate(59.626122, 36.151184) rotate(-20.420000) translate(-59.626122, -36.151184) " points="49.3617915 35.364498 69.8897968 35.3731015 69.8904533 36.9378704 49.362448 36.9292669"></polygon>
                    <polygon id="Rectangle" fill="#FFFFFF" transform="translate(61.812418, 42.013232) rotate(-20.420000) translate(-61.812418, -42.013232) " points="51.5480871 41.2265456 72.0760924 41.2351491 72.0767488 42.799918 51.5487435 42.7913145"></polygon>
                    <polygon id="Rectangle" fill="#FFFFFF" transform="translate(66.933628, 36.948973) rotate(-20.422333) translate(-66.933628, -36.948973) " points="50.3888677 36.1572717 83.4777288 36.1711408 83.4783873 37.740675 50.3895262 37.7268059"></polygon>
                    <ellipse id="Oval" fill="#FFFFFF" transform="translate(42.863590, 45.722750) rotate(-20.420000) translate(-42.863590, -45.722750) " cx="42.8635902" cy="45.72275" rx="3.65404195" ry="3.65049858"></ellipse>
                    <polygon id="Rectangle" fill="url(#linearGradient-4)" transform="translate(94.492807, 50.860459) rotate(-79.900000) translate(-94.492807, -50.860459) " points="78.2366329 9.27264485 110.730579 9.2798435 110.748982 92.448273 78.2550357 92.4410743"></polygon>
                    <polygon id="Rectangle" fill="#C3DEE7" transform="translate(94.258373, 50.670415) rotate(10.100000) translate(-94.258373, -50.670415) " points="53.4608105 35.2562843 135.06277 35.2382281 135.055936 66.0845462 53.4539768 66.1026024"></polygon>
                    <polygon id="Rectangle" fill="#F5F5F5" transform="translate(86.706392, 45.443624) rotate(-79.900000) translate(-86.706392, -45.443624) " points="85.9218274 35.178251 87.4864137 35.1785976 87.4909565 55.7089967 85.9263702 55.7086501"></polygon>
                    <polygon id="Rectangle" fill="#FFFFFF" transform="translate(85.609167, 51.604298) rotate(-79.900000) translate(-85.609167, -51.604298) " points="84.8246029 41.3389255 86.3891892 41.3392721 86.393732 61.8696712 84.8291457 61.8693246"></polygon>
                    <polygon id="Rectangle" fill="#FFFFFF" transform="translate(92.291207, 49.615264) rotate(-79.900000) translate(-92.291207, -49.615264) " points="91.5052642 33.1189668 93.0698505 33.1193134 93.0771507 66.1115608 91.5125645 66.1112142"></polygon>
                    <ellipse id="Oval" fill="#FFFFFF" transform="translate(67.399319, 45.185494) rotate(-79.900000) translate(-67.399319, -45.185494) " cx="67.3993195" cy="45.1854937" rx="3.65007224" ry="3.65446782"></ellipse>
                    <polygon id="Path" fill="#DEEDF2" points="33.2677519 48.9430159 20.1506873 39.7660819 1.99118943 39.7660819 1.99118943 48.9430159 1.99118943 53.439467 1.99118943 130.233918 115.488987 130.233918 115.488987 48.9430159"></polygon>
                    <g id="114cebd5-d8fe-4021-8e49-fe55d7dac6be" transform="translate(30.863436, 71.578947)" fill="url(#linearGradient-5)">
                        <rect id="Rectangle" x="0.0226995595" y="0.159981264" width="56.629726" height="38.5385454" rx="8.85"></rect>
                    </g>
                    <rect id="Rectangle" fill="#FFFFFF" x="31.8590308" y="70.5847953" width="55.753304" height="37.7777778" rx="8.85"></rect>
                </g>
                <g id="Group" transform="translate(121.462555, 9.941520)">
                    <g id="Group-6" transform="translate(0.000000, 6.785088)">
                        <path d="M7.98151294,12.123652 C-1.48926347,23.8744004 0.372993216,41.0667462 12.1407937,50.5235285 C23.9085942,59.9805362 41.1258888,58.1210231 50.5965749,46.3702747 C60.067261,34.6196165 58.2050043,17.4272707 46.4372038,7.97030806 C34.6694033,-1.48665454 17.4521539,0.372903641 7.98151294,12.123652" id="Fill-1" fill="#9BC3D3"></path>
                        <polygon id="Fill-2" fill="#1D252D" points="53.634257 42.6011974 101.889916 81.3810568 95.8145515 88.9189635 47.5588929 50.1392619"></polygon>
                        <path d="M73.3441939,71.2949828 L96.1992854,89.6619886 C98.3035813,91.3530954 101.410804,91.017446 103.104627,88.9161047 L103.452333,88.4844518 C105.146155,86.3831105 104.810191,83.2800697 102.705443,81.588972 L79.8503516,63.2219571 L73.3441939,71.2949828 Z" id="Fill-3" fill="#1D252D"></path>
                        <path d="M29.3394838,0.00900977132 C34.4418143,0.0184873631 39.472707,1.35769391 43.8836002,3.8963245 C48.3310701,6.45614793 52.0871931,10.1901444 54.6475702,14.6171915 C56.6507154,18.0801902 57.9254852,21.959831 58.3793087,25.9287522 C58.9573127,30.9834678 58.1919089,36.1919442 56.1693464,40.8548179 C54.2271626,45.332818 51.1465819,49.3053916 47.2983395,52.3067474 C42.9610516,55.6898446 37.6447693,57.8084063 32.1318302,58.3458024 C26.8701423,58.858759 21.4622825,57.9247865 16.6745127,55.6382153 C11.5858195,53.2078936 7.23150758,49.2903763 4.29606,44.4914175 C2.11445609,40.9251601 0.719885938,36.8967186 0.219144804,32.7393164 C-0.396113377,27.6309424 0.358407646,22.3656512 2.40860595,17.6387481 C4.35151226,13.1593952 7.43417024,9.18686673 11.2792968,6.18695389 C15.9190434,2.56748892 21.6656225,0.414387481 27.5399947,0.0617748475 C28.1384998,0.0261528551 28.7374565,0.00900977132 29.3394838,0.00900977132 Z M29.258789,3.86065744 C24.7438552,3.87242621 20.2505061,5.08943579 16.3657773,7.37735971 C11.7979651,10.0679474 8.11856312,14.228055 5.99507571,19.0618241 C4.18759393,23.1763897 3.51318065,27.7743322 4.04417669,32.2415104 C4.64363007,37.2849532 6.78346415,42.125486 10.1436995,45.9553461 C13.1253423,49.3536391 17.0085358,51.9392547 21.3104662,53.3576412 C26.1391027,54.9496738 31.4468955,55.0408931 36.3252945,53.6431132 C40.4137698,52.4716456 44.1951804,50.2579868 47.2188639,47.2469365 C50.1608141,44.3169149 52.3838717,40.6577697 53.5994864,36.6974158 C55.0092743,32.1030806 55.0783639,27.0790269 53.772436,22.4044295 C52.5504994,18.0287863 50.1260435,14.0071085 46.8539989,10.8931151 C45.1637887,9.28426357 43.2685678,7.91168959 41.1918174,6.8101133 C37.9568012,5.09394491 34.3519527,4.09923459 30.7095791,3.89902997 C30.2264039,3.87242621 29.7386227,3.85980069 29.258789,3.86065744 Z" id="Fill-4" fill="#1D252D"></path>
                        <path d="M29.3493279,7.67947027 C31.3277725,7.68533212 33.3138033,7.9639953 35.2126368,8.50193248 L35.4600948,8.58354742 C35.6732337,8.67372968 35.7296795,8.68996249 35.9306262,8.80584669 C36.7578944,9.28381266 37.3440266,10.156326 37.4740775,11.1005343 C37.6276098,12.2156379 37.1376611,13.3920655 36.2155641,14.0670797 C35.58563,14.5283619 34.7795854,14.7438975 34.0019893,14.6568717 C33.7549829,14.6293661 33.7053107,14.6171915 33.4379838,14.5418893 C31.4098219,13.9746429 29.2449711,13.8285476 27.1459586,14.1247963 C24.9138245,14.4395324 22.748793,15.2534273 20.870867,16.4893752 C20.8334322,16.5141753 20.7961781,16.5389754 20.7589239,16.5637755 L20.5367988,16.6994998 C20.3302526,16.8036603 20.281032,16.8365769 20.0626548,16.9141336 C19.0842024,17.262688 17.9368644,17.0926945 17.0979006,16.4564586 C16.3380512,15.8806449 15.8638169,14.9468076 15.852302,13.9881702 C15.8418708,13.1219696 16.2060134,12.2589254 16.8414114,11.6605661 C17.0101163,11.5018453 17.0616851,11.472987 17.248272,11.3363609 C20.7505699,8.99117123 24.8762542,7.73448145 29.0215364,7.68127392 C29.1308605,7.67992119 29.2402748,7.67947027 29.3493279,7.67947027 Z" id="Fill-5" fill="#FFFFFF"></path>
                    </g>
                </g>
            </g>
        </g>
    </g>
</svg>