<svg width="179" height="126" xmlns="http://www.w3.org/2000/svg" xmlns:xlink="http://www.w3.org/1999/xlink">
 <title>Group</title>
 <defs>
  <polygon points="0,0.0005200000014156103 132.9300994873047,0.0005200000014156103 132.9300994873047,7.679984092712402 0,7.679984092712402 " id="path-1"/>
  <polygon points="0,0 17,0 17,18.847999572753906 0,18.847999572753906 " id="path-3"/>
  <filter id="filter-5"/>
  <filter id="filter-6"/>
  <filter id="filter-7"/>
  <filter id="filter-8"/>
 </defs>
 <g>
  <title>Layer 1</title>
  <g fill-rule="evenodd" fill="none" id="Symbols">
   <g id="Contenedor_EmptyState">
    <g id="Group">
     <g opacity="0.2" id="a.-backgrounds-/-shapes-/-curve-A" fill="#CEDEE7">
      <g id="svg_1" transform="rotate(-10 82.5172 65.4211) translate(-75.0073 -108.183)">
       <path id="Primary-color" d="m140.70269,209.03947c-0.39443,-0.33357 -0.78132,-0.67096 -1.16067,-1.01216c-7.63927,-6.86836 -17.76019,-11.3511 -28.72849,-13.03595c-6.65737,-1.02264 -13.0275,-3.71046 -18.17485,-8.06366c-13.48207,-11.40163 -13.49738,-29.78838 -0.0335,-41.2057c5.93941,-5.03641 13.5128,-7.85076 21.27862,-8.44381c6.64836,-0.50784 12.8948,-2.96149 17.50738,-7.04376c0.05946,-0.05255 0.11935,-0.10472 0.17925,-0.15652c7.86866,-6.79041 20.59739,-6.8576 28.56144,-0.14789c0.0457,0.03829 0.09096,0.07695 0.13577,0.11561c2.12745,1.82644 5.19815,2.62405 8.17347,2.13535c16.96366,-2.78658 35.20688,1.37715 48.34558,12.49193c20.99359,17.75993 20.99359,46.60671 0,64.36683c-21.01046,17.774 -55.07398,17.77389 -76.084,-0.00027"/>
      </g>
     </g>
     <path fill="#DEEDF2" id="Fill-1" d="m172.4265,96.14035c0,1.63998 -30.5743,4.54961 -68.28986,4.54961c-37.71541,0 -64.71014,-5.89639 -64.71014,-7.53637c0,-1.63994 26.99473,1.59757 64.71014,1.59757c37.71556,0 68.28986,-0.25075 68.28986,1.38919"/>
     <g id="Group-5">
      <mask id="mask-2">
       <use id="svg_2" xlink:href="#path-1"/>
      </mask>
      <g id="Clip-4"/>
      <path mask="url(#mask-2)" fill="#9BC3D3" id="Fill-3" d="m172.35661,94.94994c0,1.88884 -30.55824,3.42 -68.25397,3.42c-37.69559,0 -64.67614,-4.95116 -64.67614,-6.84c0,-1.8888 26.98055,0 64.67614,0c37.69573,0 68.25397,1.5312 68.25397,3.42"/>
     </g>
     <path opacity="0.50525" fill="#FFFFFF" id="Fill-1" d="m5.9265,14.68996c1.38071,0 2.5,1.79085 2.5,4c0,2.20914 -1.11929,4 -2.5,4c-1.38071,0 -2.5,-1.79086 -2.5,-4c0,-2.20915 1.11929,-4 2.5,-4"/>
     <g id="f.-objects-/-devices-/-laptop-computer-A">
      <g id="laptop-computer">
       <path fill="#DEEDF2" id="Fill-1" d="m161.42165,92.92746c0,0.49554 -0.20142,0.94581 -0.5272,1.2705c-0.32469,0.32578 -0.77375,0.5272 -1.27038,0.5272l-99.68105,0c-1.9854,0 -3.59527,-1.60987 -3.59527,-3.59527l103.27632,0c0.99204,0 1.79758,0.80433 1.79758,1.79757"/>
       <path fill="#9BC3D3" id="Fill-2" d="m129.18023,91.26858l-75.08457,0c-1.28035,0 -2.38607,-0.89861 -2.65179,-2.15486l-9.95733,-47.09181c-0.3577,-1.69116 0.92821,-3.28319 2.65164,-3.28319l75.08144,0c1.28033,0 2.38605,0.89848 2.65177,2.15478l9.96061,47.09181c0.3577,1.69111 -0.92821,3.28327 -2.65177,3.28327"/>
       <path fill="#DEEDF2" id="Fill-3" d="m133.62727,91.26858l-77.51127,0c-1.28032,0 -2.38604,-0.89861 -2.65178,-2.15486l-9.95733,-47.09181c-0.35769,-1.69116 0.92821,-3.28319 2.65165,-3.28319l77.50812,0c1.28033,0 2.38605,0.89848 2.65177,2.15478l9.96061,47.09181c0.35769,1.69111 -0.92821,3.28327 -2.65177,3.28327"/>
       <path fill="#CEDEE7" id="Fill-4" d="m133.62739,91.2689l-49.08595,0l30.32882,-52.53067l8.79677,0c1.28008,0 2.38531,0.89909 2.65116,2.15491l9.96036,47.09241c0.35794,1.69023 -0.92821,3.28335 -2.65116,3.28335"/>
       <polygon points="57.5883894264698,86.74331849813461 48.39482405781746,43.263894975185394 122.1943693459034,43.263894975185394 131.39095595479012,86.74331849813461 " fill="#FFFFFF" id="Fill-5"/>
       <path fill="#CEDEE7" id="Fill-6" d="m70.11572,91.12986l0,3.59526l-10.1727,0c-1.98552,0 -3.59539,-1.60987 -3.59539,-3.59526l13.76809,0z"/>
       <path fill="#CEDEE7" id="Fill-7" d="m87.75742,41.17961c0,0.51567 -0.418,0.93367 -0.93367,0.93367c-0.51567,0 -0.93379,-0.418 -0.93379,-0.93367c0,-0.51568 0.41812,-0.93367 0.93379,-0.93367c0.51567,0 0.93367,0.41799 0.93367,0.93367"/>
       <path fill="#DEEDF2" id="Fill-8" d="m105.75196,65.00355c0,8.35426 -6.77254,15.12679 -15.12679,15.12679c-8.35426,0 -15.1268,-6.77253 -15.1268,-15.12679c0,-8.35426 6.77254,-15.1268 15.1268,-15.1268c8.35425,0 15.12679,6.77254 15.12679,15.1268"/>
      </g>
     </g>
     <g opacity="0.37823" id="Group-3">
      <mask id="mask-4">
       <use id="svg_3" xlink:href="#path-3"/>
      </mask>
      <g id="Clip-2"/>
      <path mask="url(#mask-4)" fill="#FFFFFF" id="Fill-1" d="m162.33391,0.55395c2.26028,0 4.09259,2.04158 4.09259,4.56c0,2.51842 -1.83231,4.56 -4.09259,4.56c-2.26028,0 -4.0926,-2.04158 -4.0926,-4.56c0,-2.51842 1.83232,-4.56 4.0926,-4.56"/>
     </g>
     <g id="d.-food-&amp;-drinks-/-coffee-cup-C">
      <g id="Group-7">
       <path fill="#9BC3D3" id="Fill-1" d="m38.8975,93.8517c0,1.00395 -3.88151,1.81778 -8.66958,1.81778c-4.78808,0 -8.66961,-0.81383 -8.66961,-1.81778c0,-1.00396 3.88153,-1.81779 8.66961,-1.81779c4.78807,0 8.66958,0.81383 8.66958,1.81779"/>
       <path fill="#CEDEE7" id="Fill-2" d="m34.8224,86.20295c-0.79667,1.50007 -2.17747,2.42334 -3.43865,2.42861c-0.38042,0.00178 -0.74842,-0.08088 -1.08787,-0.25499c-0.15,-0.07736 -0.28931,-0.17056 -0.41615,-0.27786c-1.10573,-0.92327 -1.28974,-2.86651 -0.3626,-4.61979c0.6627,-1.25035 1.73265,-2.09801 2.80087,-2.34773c0.60021,-0.14243 1.19863,-0.0967 1.72559,0.17417c1.35218,0.69638 1.75414,2.62378 0.9878,4.45442c-0.06072,0.14772 -0.1304,0.29719 -0.20899,0.44317m0.0536,-6.46803c-0.71809,-0.36931 -1.53085,-0.45022 -2.349,-0.2849c-1.58979,0.31653 -3.20106,1.56333 -4.18707,3.42397c-1.49511,2.82072 -0.99142,5.98798 1.1236,7.07296c0.13575,0.07036 0.27506,0.12838 0.4162,0.17766c0.41264,0.14417 0.84849,0.204 1.2933,0.1864c1.78447,-0.07036 3.70831,-1.38927 4.82657,-3.50307c0.184,-0.34647 0.33577,-0.69644 0.46084,-1.04816c0.886,-2.51829 0.27149,-5.07171 -1.58444,-6.02486"/>
       <path fill="#CEDEE7" id="Fill-3" d="m32.90212,76.43934c0,0.00879 -0.00178,0.01584 -0.00356,0.02463l0,0.00356l-0.37156,2.98254l-0.209,1.68117l-0.57699,4.6286l-0.35726,2.87175l-0.21078,1.6794l-0.10535,0.85296c-0.1215,0.96894 -0.55023,1.83244 -1.18789,2.50064c-0.8289,0.8758 -2.01138,1.41566 -3.30824,1.41566l-2.05959,0c-2.08997,0 -3.8834,-1.40157 -4.38893,-3.3536c-0.04292,-0.15652 -0.07503,-0.31828 -0.0983,-0.48185l-1.59156,-11.079l-0.5323,-3.69827c-0.00178,-0.00886 -0.00356,-0.0194 -0.00356,-0.02819l15.00487,0z"/>
       <path fill="#FFFFFF" id="Fill-4" d="m32.90212,76.43934c0,0.00879 -0.00178,0.01584 -0.00356,0.02463l0,0.00356l-0.37156,2.98254l-0.209,1.68117l-0.57699,4.6286l-0.35726,2.87175l-0.21078,1.6794l-0.10535,0.85296c-0.1215,0.96894 -0.55023,1.83244 -1.18789,2.50064c-0.8289,0.8758 -2.01138,1.41566 -3.30824,1.41566l-1.10212,0c0.52518,-0.24087 0.9967,-0.58029 1.38791,-0.99358c0.63772,-0.66825 1.06639,-1.5317 1.18789,-2.5007l0.10541,-0.8529l0.21078,-1.6794l0.35726,-2.87175l0.57699,-4.62859l0.20899,-1.68123l0.37157,-2.98255l0,-0.00355c0.00178,-0.00874 0.00356,-0.01579 0.00356,-0.02458"/>
       <path fill="#990000" id="Fill-5" d="m32.90178,76.43962c0,0.21679 -0.77369,0.41413 -2.03557,0.56095c-1.36798,0.15827 -3.31147,0.25807 -5.4671,0.25807c-2.15558,0 -4.09912,-0.0998 -5.46704,-0.25807c-1.26193,-0.14682 -2.03557,-0.34416 -2.03557,-0.56095c0,-0.45197 3.3592,-0.81902 7.50261,-0.81902c4.14341,0 7.50267,0.36705 7.50267,0.81902"/>
       <path fill="#DEEDF2" id="Fill-6" d="m32.45771,62.49932l-4.92514,6.43121c-1.02341,1.33543 -1.52337,2.9883 -1.4086,4.65566l0.14081,2.03993l0.08674,1.25334l0.02602,0.37202c-0.32038,0.00451 -0.6469,0.00699 -0.97849,0.00699c-0.29591,0 -0.58768,-0.00198 -0.87439,-0.00553c-0.17855,-0.00248 -0.35508,-0.00547 -0.52903,-0.00896l-0.16993,-0.36452l-0.57089,-1.22481l-2.09779,-4.49941c-1.31777,-2.82355 -0.5693,-6.16233 1.83307,-8.18574c1.61361,-1.35894 2.4748,-3.30675 2.4748,-5.28906c0,-1.09209 -0.26173,-2.19618 -0.80305,-3.21665l-4.7409,-8.9318c-0.53363,-1.00294 -0.08319,-2.23919 0.97745,-2.68484c0.25151,-0.10617 0.51634,-0.1572 0.7795,-0.1572c0.56838,0 1.12441,0.24233 1.50964,0.68748l1.23556,1.43055l7.77393,9.00188c2.14369,2.48209 2.25238,6.08772 0.26069,8.68946"/>
      </g>
     </g>
     <g id="f.-objects-/-supplies-/-lightbulb">
      <g id="Group-12">
       <path fill="#1BB3BC" id="Fill-1" d="m156.36582,70.95494l-6.32927,0c-0.27148,0 -0.49155,0.22007 -0.49155,0.49171l0,0.78936c0,0.27148 0.22007,0.4917 0.49155,0.4917l6.32927,0c0.27149,0 0.49155,-0.22022 0.49155,-0.4917l0,-0.78936c0,-0.27164 -0.22006,-0.49171 -0.49155,-0.49171"/>
       <path fill="#1BB3BC" id="Fill-2" d="m156.36582,73.3504l-6.32927,0c-0.27148,0 -0.49155,0.22007 -0.49155,0.4917l0,0.78936c0,0.27148 0.22007,0.4917 0.49155,0.4917l6.32927,0c0.27149,0 0.49155,-0.22022 0.49155,-0.4917l0,-0.78936c0,-0.27163 -0.22006,-0.4917 -0.49155,-0.4917"/>
       <path fill="#1BB3BC" id="Fill-3" d="m154.96561,75.74582l-3.52881,0c-0.14232,0 -0.2258,0.15781 -0.14898,0.27768c0.40389,0.63031 1.10916,1.04876 1.91338,1.04876c0.80438,0 1.50949,-0.41845 1.91339,-1.04876c0.07681,-0.11987 -0.00666,-0.27768 -0.14898,-0.27768"/>
       <path fill="#FFCC33" id="Fill-4" d="m153.20127,51.15436c-4.81436,0 -8.71733,3.90281 -8.71733,8.71717c0,5.54564 4.27248,7.27644 4.82334,9.90329c0.06892,0.32848 0.36843,0.55737 0.70403,0.55737l6.37991,0c0.3356,0 0.63496,-0.22889 0.70387,-0.55737c0.55087,-2.62685 4.82334,-4.35765 4.82334,-9.90329c0,-4.81436 -3.90281,-8.71717 -8.71716,-8.71717"/>
       <path fill="#FFCC33" id="Fill-5" d="m161.16284,66.89305c0.06736,0.00738 0.13132,0.02934 0.1894,0.06554l5.50457,3.72518c0.3181,0.23314 0.03035,0.93075 -0.43394,0.64131l-5.5046,-3.72518c-0.24262,-0.17776 -0.19049,-0.27328 -0.16078,-0.40551c0.03859,-0.17171 0.15685,-0.29334 0.37642,-0.3023c0.00966,0.00031 0.01929,0.00065 0.02893,0.00096z"/>
       <path fill="#FFCC33" id="Fill-6" d="m170.02168,58.89853c0.28681,0.02821 0.27814,0.10788 0.33203,0.23131c0.10129,0.23183 -0.07371,0.52614 -0.34721,0.54228l-6.05432,0.11909c-0.09921,-0.00195 -0.12643,-0.01443 -0.17655,-0.03874c-0.29849,-0.14477 -0.24329,-0.71159 0.16134,-0.73547l6.05435,-0.11909c0.01022,0.00021 0.02014,0.0004 0.03036,0.00062z"/>
       <path fill="#FFCC33" id="Fill-7" d="m164.73488,46.65763c0.09503,0.01205 0.12194,0.02742 0.17001,0.05758c0.18498,0.11615 0.25142,0.35654 0.0998,0.56558l-3.40287,4.37655c-0.27625,0.33178 -0.41919,0.21111 -0.59082,0.02419c-0.12274,-0.13365 -0.13154,-0.34635 -0.02047,-0.49951l3.40287,-4.37655c0.08483,-0.10187 0.20483,-0.15595 0.34148,-0.14784z"/>
       <path fill="#FFCC33" id="Fill-8" d="m144.66381,67.26179c0.19076,0.02069 0.21322,0.07319 0.26485,0.13291c0.14015,0.16208 0.13811,0.40318 -0.06114,0.56344l-5.09235,3.80431c-0.32615,0.22598 -0.88847,-0.27851 -0.46342,-0.62037l5.09234,-3.80431c0.07112,-0.04928 0.11358,-0.08134 0.25972,-0.07598z"/>
       <path fill="#FFCC33" id="Fill-9" d="m141.27962,47.85076c0.10314,0.00827 0.19618,0.05238 0.26782,0.12687l3.2144,3.55095c0.25869,0.30373 -0.2048,0.90362 -0.57407,0.51964l-3.21442,-3.55095c-0.06207,-0.07288 -0.07294,-0.10528 -0.08787,-0.16314c-0.05863,-0.22743 0.09397,-0.4725 0.37078,-0.48383c0.00778,0.00015 0.01558,0.00031 0.02336,0.00046z"/>
       <path fill="#FFCC33" id="Fill-10" d="m153.45358,42.9993c0.08849,0.00929 0.10249,0.01889 0.13934,0.03624c0.13121,0.06194 0.21515,0.19885 0.22184,0.3469l0.04299,5.60139c-0.00632,0.21233 -0.05833,0.22509 -0.12163,0.28474c-0.21363,0.2013 -0.63769,0.05365 -0.65268,-0.27882l-0.04299,-5.60112c0.00263,-0.08889 0.01109,-0.10376 0.02568,-0.14185c0.05888,-0.15332 0.21517,-0.25275 0.38745,-0.24748z"/>
       <path fill="#FFCC33" id="Fill-11" d="m141.82893,59.38568c0.20111,0.00923 0.21684,0.05826 0.27303,0.11522c0.21133,0.21415 0.05944,0.64806 -0.27817,0.65908l-6.0152,-0.03995c-0.28768,-0.0132 -0.28319,-0.09323 -0.34356,-0.21369c-0.11791,-0.23527 0.06737,-0.55145 0.3487,-0.56062c2.00507,0.01332 4.01013,0.02664 6.0152,0.03996z"/>
      </g>
     </g>
     <g id="f.-objects-/-banking-/-id-card">
      <g id="svg_4" transform="rotate(-6 90.5498 64.8617) translate(-11.8433 -11.8516)">
       <path fill="#FFFFFF" id="Primary-color" d="m113.0731,84.0711l-21.40931,0c-0.60983,0 -1.10413,-0.49462 -1.10413,-1.10471l0,-12.52146c0,-0.61009 0.4943,-1.10447 1.10413,-1.10447l21.40931,0c0.60982,0 1.10412,0.49438 1.10412,1.10447l0,12.52146c0,0.61009 -0.4943,1.10471 -1.10412,1.10471"/>
       <g id="b.-characters-/-body-parts-/-head-/-female-/-model-F.02">
        <g id="b.-characters-/-body-parts-/-head-/-templates-/-model-H">
         <path fill="#FFC4B8" id="Base-color" d="m108.26054,72.78217c0.11854,-1.60648 0.70285,-1.99084 1.66716,-1.9774c0.96317,0.01338 1.53649,0.41285 1.6121,2.01725c0.03263,-0.01867 0.08015,-0.02824 0.14717,-0.00625c0.2523,0.08261 0.25156,0.46062 0.10018,1.15497c-0.10609,0.48537 -0.28261,0.45342 -0.36502,0.4063c-0.16116,0.64786 -0.46677,1.1158 -0.85593,1.36379c-0.15214,0.54607 0.04179,2.05429 0.29694,2.15242c0.19511,0.74916 -2.25102,0.79377 -2.15146,0.03514c0.00949,-0.07234 0.35432,-0.71348 0.35491,-1.24931c0.00035,-0.3308 -0.01753,-0.67147 -0.05395,-1.06741c-0.31738,-0.27764 -0.55861,-0.7217 -0.68213,-1.30323c-0.06561,0.04773 -0.25996,0.1356 -0.35571,-0.4013c-0.12443,-0.69706 -0.11441,-1.07442 0.1267,-1.15028c0.07964,-0.02515 0.12947,-0.00247 0.15904,0.02531z"/>
         <path fill="#F4A48D" id="Shadow" d="m110.65273,75.62012c0,0 -0.26247,0.44302 -0.79452,0.4575c-0.53206,0.01449 -0.8669,-0.52671 -0.8669,-0.52671c0,0 -0.01217,0.40376 0.82195,0.80334c0.70468,-0.27712 0.83947,-0.73413 0.83947,-0.73413zm-0.76327,-1.18236c-0.10968,0.03486 -0.21963,-0.05164 -0.21435,-0.16858l0.03409,-0.7539l0.18026,0.92248z"/>
        </g>
        <g fill="#1BB3BC" id="Hair">
         <path id="Hair-color" d="m108.00139,72.8036c-0.15021,0.14019 -0.14204,0.50236 -0.03574,1.09785c0.09574,0.5369 0.2901,0.44903 0.35571,0.4013c0.12352,0.58153 0.36475,1.02559 0.68212,1.30323c0.03643,0.39594 0.0543,0.73661 0.05395,1.06741c-0.00034,0.3161 -0.12048,0.66884 -0.22093,0.91985c-0.87301,0.1328 -2.01173,0.22886 -1.84634,-0.20969c0.2631,-0.69887 0.42186,-2.46208 0.44781,-4.34699c0.02593,-1.8845 0.90511,-2.82973 2.44298,-2.80856l0.03531,0.00052c1.53813,0.02123 2.39095,0.9905 2.365,2.87491c-0.02595,1.88491 0.08421,3.65184 0.3282,4.35772c0.15743,0.45542 -1.04763,0.30785 -1.92451,0.14532c-0.15921,-0.48499 -0.24356,-1.45619 -0.1279,-1.87133c0.38916,-0.24799 0.69476,-0.71593 0.85593,-1.36379c0.08241,0.04711 0.25893,0.07907 0.36502,-0.4063c0.14464,-0.66345 0.15175,-1.03809 -0.068,-1.14217c-0.00625,0.49346 -0.08176,0.8882 -0.08176,0.8882l-0.16607,-0.00225c0.01733,-1.22922 -0.51105,-2.22945 -0.51105,-2.22945c-0.46889,0.66333 -1.36707,0.75419 -1.88291,0.99766c-0.84489,0.39849 -0.80801,1.18867 -0.80801,1.18867l-0.16576,-0.00222c-0.05979,-0.36597 -0.09028,-0.63799 -0.09305,-0.85989z"/>
        </g>
       </g>
       <path fill="#CEDEE7" id="Flag-countryside" d="m93.09881,70.34301c-0.36126,0 -0.65413,0.2927 -0.65413,0.65376l0,2.01091c0,0.36106 0.29287,0.65376 0.65413,0.65376l4.76141,0c0.36127,0 0.65414,-0.2927 0.65414,-0.65376l0,-2.01091c0,-0.36106 -0.29287,-0.65376 -0.65414,-0.65376l-4.76141,0z"/>
       <path transform="rotate(-90 98.9342 79.7039) translate(-8.38443 -14.8423)" fill="#9BC3D3" id="card-information" d="m104.85464,99.30746l0,1.74519l-0.88677,0l0,-1.74519l0.88677,0zm0,-2.24805l0,1.74519l-0.88677,0l0,-1.74519l0.88677,0zm5.81473,-3.87266l0,4.52568l-0.67986,0l0,-4.52568l0.67986,0zm-1.48041,-0.01726l0,4.52568l-0.67985,0l0,-4.52568l0.67985,0zm-4.33432,1.63437l0,1.7452l-0.88677,0l0,-1.7452l0.88677,0zm0,-2.24805l0,1.7452l-0.88677,0l0,-1.7452l0.88677,0zm4.33432,-4.50359l0,4.52568l-0.67985,0l0,-4.52568l0.67985,0zm1.48041,-0.01232l0,4.52567l-0.67986,0l0,-4.52567l0.67986,0zm-5.81473,2.26284l0,1.74519l-0.88677,0l0,-1.74519l0.88677,0zm0,-2.24805l0,1.74519l-0.88677,0l0,-1.74519l0.88677,0z"/>
      </g>
     </g>
     <path fill="#9BC3D3" id="Fill-28" d="m161.98451,83.23298c-0.62905,-0.27475 -0.95253,-0.97705 -0.75234,-1.63394c0.01557,-0.04839 0.02585,-0.09877 0.02983,-0.14914c0.05336,-0.36225 -0.19621,-0.69899 -0.55846,-0.75268c-0.25984,-0.03877 -0.51769,0.07988 -0.65788,0.30194c-0.03016,0.04109 -0.05602,0.08583 -0.07623,0.13257c-0.27443,0.62938 -0.97705,0.95252 -1.63394,0.75234c-0.04839,-0.01558 -0.09844,-0.02552 -0.14914,-0.02983c-0.36226,-0.05336 -0.69899,0.19654 -0.75268,0.55845c-0.03844,0.26018 0.07988,0.5177 0.30226,0.65789c0.0411,0.03049 0.08518,0.05601 0.13224,0.07623c0.62939,0.27442 0.95286,0.97705 0.75268,1.63394c-0.01591,0.04839 -0.02619,0.09843 -0.03016,0.14914c-0.05336,0.36225 0.19686,0.69898 0.55845,0.753c0.25984,0.03812 0.51802,-0.0802 0.65822,-0.30259c0.03016,-0.0411 0.05601,-0.08518 0.07589,-0.13224c0.27476,-0.62905 0.97706,-0.95285 1.63395,-0.75234c0.04838,0.01558 0.09876,0.02585 0.14914,0.02983c0.36225,0.05369 0.69898,-0.19654 0.753,-0.55846c0.03845,-0.25984 -0.0802,-0.51802 -0.30226,-0.65821c-0.0411,-0.03016 -0.08551,-0.05568 -0.13257,-0.0759"/>
     <path transform="rotate(-15 38.9253 70.3316) translate(-49.4988 -125.094)" fill="#9BC3D3" id="Fill-28-Copy-3" d="m90.67401,195.47226c-0.68767,-0.30044 -1.04119,-1.06864 -0.82221,-1.78728c0.01704,-0.05294 0.02829,-0.10805 0.03264,-0.16316c0.05841,-0.39629 -0.21437,-0.7646 -0.6104,-0.82327c-0.28407,-0.04237 -0.56599,0.08748 -0.71931,0.33042c-0.03298,0.04496 -0.06125,0.09391 -0.08336,0.14504c-0.30014,0.68856 -1.06837,1.04219 -1.78649,0.82333c-0.0529,-0.01703 -0.10761,-0.0279 -0.16305,-0.0326c-0.39603,-0.05831 -0.76422,0.21513 -0.82298,0.61106c-0.04209,0.28461 0.08722,0.5663 0.33033,0.71962c0.04492,0.03335 0.09311,0.06126 0.14456,0.08337c0.68803,0.30008 1.04154,1.06865 0.82256,1.78728c-0.0174,0.05294 -0.02864,0.10769 -0.033,0.16316c-0.05841,0.39629 0.2151,0.76461 0.6104,0.82363c0.28407,0.04165 0.56636,-0.08783 0.71967,-0.33114c0.03298,-0.04496 0.06125,-0.09319 0.083,-0.14468c0.30051,-0.68819 1.06837,-1.04255 1.78649,-0.82333c0.0529,0.01704 0.10798,0.02827 0.16305,0.03261c0.39603,0.05866 0.76422,-0.21514 0.82335,-0.61106c0.04208,-0.28426 -0.08759,-0.56667 -0.33033,-0.71999c-0.04492,-0.03299 -0.09347,-0.0609 -0.14492,-0.08301"/>
     <path transform="rotate(-28 123.043 27.4837) translate(-133.616 -82.246)" fill="#9BC3D3" id="Fill-28-Copy" d="m259.15938,109.78127c-0.76413,-0.3337 -1.15686,-1.18713 -0.91343,-1.98556c0.01894,-0.05881 0.03144,-0.12004 0.03629,-0.18127c0.06495,-0.44028 -0.23812,-0.84944 -0.67819,-0.91457c-0.31566,-0.04703 -0.62896,0.09726 -0.79936,0.36719c-0.03666,0.04996 -0.06808,0.10435 -0.09266,0.16115c-0.33361,0.76502 -1.18733,1.158 -1.9853,0.91494c-0.05879,-0.01892 -0.11958,-0.03098 -0.18119,-0.0362c-0.44007,-0.06473 -0.84924,0.23911 -0.9146,0.67899c-0.0468,0.31621 0.09686,0.62915 0.36698,0.79945c0.04992,0.03705 0.10346,0.06805 0.16063,0.0926c0.76453,0.3333 1.15726,1.18713 0.91383,1.98556c-0.01934,0.05881 -0.03184,0.11964 -0.03669,0.18127c-0.06495,0.44028 0.23892,0.84944 0.67819,0.91497c0.31566,0.04623 0.62936,-0.09766 0.79976,-0.36799c0.03666,-0.04996 0.06808,-0.10354 0.09225,-0.16075c0.33402,-0.76461 1.18734,-1.1584 1.98531,-0.91494c0.05878,0.01892 0.11998,0.03139 0.18118,0.0362c0.44007,0.06513 0.84925,-0.2391 0.91501,-0.67898c0.0468,-0.31582 -0.09726,-0.62956 -0.36698,-0.79987c-0.04992,-0.03664 -0.10386,-0.06764 -0.16103,-0.09219"/>
     <path transform="rotate(-21 48.9465 24.4448) translate(-59.52 -79.2072)" fill="#9BC3D3" id="Fill-28-Copy-2" d="m110.96656,103.70368c-0.76409,-0.33377 -1.15685,-1.18727 -0.91348,-1.98573c0.01894,-0.05882 0.03143,-0.12005 0.03628,-0.18128c0.06492,-0.44031 -0.23815,-0.84951 -0.6782,-0.91467c-0.31564,-0.04706 -0.62891,0.09723 -0.79929,0.36716c-0.03665,0.04996 -0.06806,0.10435 -0.09264,0.16116c-0.33354,0.76505 -1.18719,1.15801 -1.98513,0.91489c-0.05877,-0.01892 -0.11957,-0.03099 -0.18117,-0.03622c-0.44004,-0.06475 -0.84918,0.23908 -0.9145,0.67898c-0.04678,0.31624 0.09688,0.6292 0.367,0.79953c0.04991,0.03705 0.10345,0.06806 0.16062,0.09262c0.7645,0.33336 1.15725,1.18727 0.91389,1.98573c-0.01934,0.05882 -0.03184,0.11965 -0.03669,0.18128c-0.06492,0.44031 0.23896,0.84951 0.6782,0.91507c0.31565,0.04625 0.62932,-0.09763 0.79969,-0.36797c0.03665,-0.04996 0.06807,-0.10354 0.09224,-0.16075c0.33395,-0.76465 1.18719,-1.15841 1.98513,-0.91489c0.05878,0.01892 0.11997,0.0314 0.18117,0.03622c0.44005,0.06515 0.84918,-0.23908 0.91491,-0.67899c0.04678,-0.31582 -0.09729,-0.6296 -0.367,-0.79993c-0.04992,-0.03664 -0.10386,-0.06765 -0.16103,-0.09221"/>
     <g id="Group-8" filter="url(#filter-5)">
      <g id="svg_5">
       <polygon points="85.14130690693855,30.588087022304535 85.80918410420418,30.588087022304535 85.80918410420418,26.803676545619965 85.14130690693855,26.803676545619965 " fill="#1BB3BC" id="Fill-5"/>
       <polygon points="83.58091261982918,29.029920518398285 87.36555007100105,29.029920518398285 87.36555007100105,28.362039506435394 83.58091261982918,28.362039506435394 " fill="#1BB3BC" id="Fill-7"/>
      </g>
     </g>
     <g id="Group-8-Copy" filter="url(#filter-6)">
      <g id="svg_6">
       <polygon points="144.14132216572762,37.58808320760727 144.80919936299324,37.58808320760727 144.80919936299324,33.80367463827133 144.14132216572762,33.80367463827133 " fill="#1BB3BC" id="Fill-5"/>
       <polygon points="142.58092787861824,36.02991670370102 146.36556532979012,36.02991670370102 146.36556532979012,35.362039506435394 142.58092787861824,35.362039506435394 " fill="#1BB3BC" id="Fill-7"/>
      </g>
     </g>
     <g id="Group-8-Copy-3" filter="url(#filter-7)">
      <g id="svg_7">
       <polygon points="116.14130690693855,16.588084161281586 116.80918410420418,16.588084161281586 116.80918410420418,12.803673684597015 116.14130690693855,12.803673684597015 " fill="#1BB3BC" id="Fill-5"/>
       <polygon points="114.58091261982918,15.029915750026703 118.36555007100105,15.029915750026703 118.36555007100105,14.362038552761078 114.58091261982918,14.362038552761078 " fill="#1BB3BC" id="Fill-7"/>
      </g>
     </g>
     <g id="Group-8-Copy-2" filter="url(#filter-8)">
      <g id="svg_8">
       <polygon points="14.141310721635818,62.58808320760727 14.809186965227127,62.58808320760727 14.809186965227127,58.80367463827133 14.141310721635818,58.80367463827133 " fill="#1BB3BC" id="Fill-5"/>
       <polygon points="12.580916434526443,61.02991670370102 16.36555388569832,61.02991670370102 16.36555388569832,60.362039506435394 12.580916434526443,60.362039506435394 " fill="#1BB3BC" id="Fill-7"/>
      </g>
     </g>
    </g>
   </g>
  </g>
 </g>
</svg>